<svg xmlns="http://www.w3.org/2000/svg" xml:space="preserve" viewBox="0 0 398.75 398.75">
  <path fill="#1ea6c6" d="m62.51 220.44-.02-1.57a90.81 90.81 0 0 1 179.38-20.17 59.33 59.33 0 0 1 88.09 55.78 63.91 63.91 0 0 1-22.23 123.8H79.86a79.87 79.87 0 0 1-17.35-157.83z"/>
  <g fill="#f7cf52">
    <path d="M232.14 20.46h15v58.6h-15zM316 113.8l-10.6-10.6 41.44-41.44 10.6 10.6zM340.14 172.07h58.6v15h-58.6zM163.27 113.8l-41.44-41.43 10.6-10.61 41.44 41.44z"/>
  </g>
  <path fill="#f7cf52" d="M317.13 179.45c0 4.95-.46 9.78-1.35 14.47a71.95 71.95 0 0 0-45-15.75 72.52 72.52 0 0 0-20.73 3.03 103.76 103.76 0 0 0-61.55-59.98 77.5 77.5 0 0 1 128.63 58.23z"/>
</svg>