<svg xmlns="http://www.w3.org/2000/svg" xml:space="preserve" viewBox="0 0 447.97 447.97">
  <path fill="#1ea6c6" d="m62.51 191.26-.02-1.57a90.81 90.81 0 0 1 179.38-20.17 59.33 59.33 0 0 1 88.09 55.78 63.91 63.91 0 0 1-22.23 123.8H79.86a79.87 79.87 0 0 1-17.35-157.84z"/>
  <path fill="#037893" d="M447.97 255.53a73.44 73.44 0 0 1-73.44 73.44h-3.62a76.45 76.45 0 0 0 13.71-43.77 77.28 77.28 0 0 0-41.65-68.33c-2.3-37.82-33.8-67.88-72.19-67.88a72.53 72.53 0 0 0-20.73 3.04 104.64 104.64 0 0 0-10.08-19.46 83.51 83.51 0 0 1 150.51 51.27 73.47 73.47 0 0 1 57.5 71.7z"/>
</svg>