<svg xmlns="http://www.w3.org/2000/svg" xml:space="preserve" viewBox="0 0 512 512">
  <path fill="#f7b239" d="M438.36 129.15c0 15.15-2.6 29.67-7.41 43.18-16.9-23.65-76.83 31.65-108.13 31.65-16.65 0-56.4-27.09-69.94-19.43-20.13-33.44-66.06 9.71-46.63-50.52 2.66-8.25-12.71-43.56-20.83-41.74C201.26 38.92 250.69 0 309.22 0c71.31 0 129.14 57.82 129.14 129.15z"/>
  <path fill="#e09b2d" d="M349.17 6.31A129 129 0 0 0 309.2 0c-58.52 0-107.95 38.92-123.8 92.3a114.93 114.93 0 0 1 25.24-2.8c11.4 0 22.4 1.68 32.79 4.76 15.14-46.5 55.96-81.39 105.73-87.95z"/>
  <path fill="#2197d8" d="M448.27 224.68a47.57 47.57 0 0 1-3.1 95.02H93.8a74.55 74.55 0 1 1 6.78-148.77c11.99-39.26 44.38-69.6 84.84-78.64a114.93 114.93 0 0 1 25.23-2.78 115 115 0 0 1 98.64 55.79 92.71 92.71 0 0 1 45.8-12.04 93 93 0 0 1 75.86 39.07 92.7 92.7 0 0 1 17.32 52.35z"/>
  <path fill="#178bbf" d="M59.42 254.22A74.54 74.54 0 0 1 140.73 180c12-39.26 44.4-69.6 84.85-78.64a114.93 114.93 0 0 1 30.16-2.67 114.7 114.7 0 0 0-45.09-9.18c-8.67 0-17.11.96-25.23 2.78a115.25 115.25 0 0 0-84.85 78.64 74.54 74.54 0 0 0-81.3 74.22A74.54 74.54 0 0 0 93.8 319.7h4.5a74.53 74.53 0 0 1-38.88-65.48z"/>
  <path fill="#2197d8" d="M155.54 512a9.72 9.72 0 0 1-8.98-5.99L86.33 361.26a9.72 9.72 0 0 1 17.94-7.46l60.23 144.75a9.72 9.72 0 0 1-8.96 13.45z"/>

  <path fill="#2197d8" d="M349.67 512a9.72 9.72 0 0 1-8.97-5.99l-60.24-144.75a9.72 9.72 0 0 1 17.94-7.46l60.24 144.75a9.72 9.72 0 0 1-8.97 13.45z"/>

</svg>